{
	"asset":{
		"generator":"Khronos glTF Blender I/O v5.1.20",
		"version":"2.0"
	},
	"scene":0,
	"scenes":[
		{
			"name":"Scene",
			"nodes":[
				0
			]
		}
	],
	"nodes":[
		{
			"mesh":0,
			"name":"treasure_chest_bottom",
			"translation":[
				0,
				0.016473479568958282,
				0
			]
		}
	],
	"materials":[
		{
			"doubleSided":true,
			"name":"treasure_chest",
			"normalTexture":{
				"index":0
			},
			"pbrMetallicRoughness":{
				"baseColorTexture":{
					"index":1
				},
				"metallicRoughnessTexture":{
					"index":2
				}
			}
		}
	],
	"meshes":[
		{
			"name":"Plane.020",
			"primitives":[
				{
					"attributes":{
						"POSITION":0,
						"NORMAL":1,
						"TEXCOORD_0":2,
						"TEXCOORD_1":3,
						"TANGENT":4
					},
					"indices":5,
					"material":0
				}
			]
		}
	],
	"textures":[
		{
			"sampler":0,
			"source":0
		},
		{
			"sampler":0,
			"source":1
		},
		{
			"sampler":0,
			"source":2
		}
	],
	"images":[
		{
			"mimeType":"image/jpeg",
			"name":"treasure_chest_nor_gl_1k",
			"uri":"treasure_chest_nor_gl_1k.jpg"
		},
		{
			"mimeType":"image/jpeg",
			"name":"treasure_chest_diff_1k",
			"uri":"treasure_chest_diff_1k.jpg"
		},
		{
			"mimeType":"image/jpeg",
			"name":"treasure_chest_arm_1k",
			"uri":"treasure_chest_arm_1k.jpg"
		}
	],
	"accessors":[
		{
			"bufferView":0,
			"componentType":5126,
			"count":6420,
			"max":[
				0.4743364751338959,
				0.6051682829856873,
				0.262612909078598
			],
			"min":[
				-0.47411617636680603,
				-0.018905794247984886,
				-0.2634529769420624
			],
			"type":"VEC3"
		},
		{
			"bufferView":1,
			"componentType":5126,
			"count":6420,
			"type":"VEC3"
		},
		{
			"bufferView":2,
			"componentType":5126,
			"count":6420,
			"type":"VEC2"
		},
		{
			"bufferView":3,
			"componentType":5126,
			"count":6420,
			"type":"VEC2"
		},
		{
			"bufferView":4,
			"componentType":5126,
			"count":6420,
			"type":"VEC4"
		},
		{
			"bufferView":5,
			"componentType":5123,
			"count":12000,
			"type":"SCALAR"
		}
	],
	"bufferViews":[
		{
			"buffer":0,
			"byteLength":77040,
			"byteOffset":0,
			"target":34962
		},
		{
			"buffer":0,
			"byteLength":77040,
			"byteOffset":77040,
			"target":34962
		},
		{
			"buffer":0,
			"byteLength":51360,
			"byteOffset":154080,
			"target":34962
		},
		{
			"buffer":0,
			"byteLength":51360,
			"byteOffset":205440,
			"target":34962
		},
		{
			"buffer":0,
			"byteLength":102720,
			"byteOffset":256800,
			"target":34962
		},
		{
			"buffer":0,
			"byteLength":24000,
			"byteOffset":359520,
			"target":34963
		}
	],
	"samplers":[
		{
			"magFilter":9729,
			"minFilter":9987
		}
	],
	"buffers":[
		{
			"byteLength":383520,
			"uri":"treasure_chest.bin"
		}
	]
}
